<svg width="17" height="19" viewBox="0 0 17 19" fill="none" xmlns="http://www.w3.org/2000/svg">
<path fill-rule="evenodd" clip-rule="evenodd" d="M8.50001 7.79998C9.45479 7.79998 10.3705 7.42069 11.0456 6.74556C11.7207 6.07043 12.1 5.15476 12.1 4.19998C12.1 3.2452 11.7207 2.32952 11.0456 1.65439C10.3705 0.97926 9.45479 0.599976 8.50001 0.599976C7.54523 0.599976 6.62955 0.97926 5.95442 1.65439C5.27929 2.32952 4.90001 3.2452 4.90001 4.19998C4.90001 5.15476 5.27929 6.07043 5.95442 6.74556C6.62955 7.42069 7.54523 7.79998 8.50001 7.79998ZM3.39866 18.6C1.57686 18.6 0.0422473 17.0686 0.739418 15.3854C1.16156 14.3663 1.7803 13.4403 2.56031 12.6603C3.34032 11.8803 4.26633 11.2615 5.28547 10.8394C6.3046 10.4172 7.3969 10.2 8.50001 10.2C9.60311 10.2 10.6954 10.4172 11.7145 10.8394C12.7337 11.2615 13.6597 11.8803 14.4397 12.6603C15.2197 13.4403 15.8385 14.3663 16.2606 15.3854C16.9578 17.0686 15.4232 18.6 13.6014 18.6H3.39866Z" fill="#F53838"/>
</svg>
